<svg xmlns="http://www.w3.org/2000/svg" width="198" height="40" viewBox="0 0 198 40">
    <defs>
        <linearGradient id="a" x1="100%" x2="0%" y1="50%" y2="50%">
            <stop offset="0%" stop-color="#27B6EA"/>
            <stop offset="100%" stop-color="#48148F"/>
        </linearGradient>
    </defs>
    <path fill="url(#a)" fill-rule="evenodd" d="M74 50h82.362a4 4 0 0 1 4 4v32a4 4 0 0 1-4 4H74a4 4 0 0 1-4-4V54a4 4 0 0 1 4-4zm21.101 24.42l1.325 3.315h3.631l-6.686-15.47h-3.418l-6.664 15.47h3.546l1.324-3.315h6.942zm-1.089-2.718H89.27l2.37-5.923 2.372 5.923zm19.183 3.16h-8.14v-3.58h6.943v-2.785h-6.942v-3.359h7.86v-2.873h-11.3v15.47h11.579v-2.873zm12.282 2.873h3.717l-3.353-4.973c.982-.442 1.74-1.079 2.275-1.911.534-.833.8-1.823.8-2.973 0-1.149-.263-2.143-.79-2.983-.527-.84-1.278-1.488-2.253-1.945-.976-.456-2.126-.685-3.45-.685h-6.473v15.47h3.46v-4.31h3.184l2.883 4.31zm-.064-9.857c0 .855-.27 1.518-.811 1.99-.542.47-1.332.707-2.372.707h-2.82v-5.393h2.82c1.04 0 1.83.232 2.372.696.54.465.811 1.131.811 2zM138.893 78c1.552 0 2.947-.346 4.186-1.039a7.663 7.663 0 0 0 2.927-2.862c.712-1.215 1.068-2.581 1.068-4.099 0-1.518-.356-2.884-1.068-4.1a7.663 7.663 0 0 0-2.927-2.861c-1.239-.693-2.634-1.039-4.187-1.039-1.552 0-2.951.346-4.197 1.039a7.565 7.565 0 0 0-2.927 2.862c-.705 1.215-1.057 2.581-1.057 4.099 0 1.518.352 2.884 1.057 4.1a7.565 7.565 0 0 0 2.927 2.861c1.246.693 2.645 1.039 4.197 1.039zm0-3.05c-.884 0-1.681-.21-2.393-.63a4.45 4.45 0 0 1-1.677-1.756c-.406-.752-.609-1.606-.609-2.564s.203-1.812.609-2.564a4.45 4.45 0 0 1 1.677-1.756c.712-.42 1.51-.63 2.392-.63.883 0 1.68.21 2.393.63a4.45 4.45 0 0 1 1.677 1.756c.406.752.609 1.606.609 2.564s-.203 1.812-.61 2.564a4.45 4.45 0 0 1-1.676 1.756c-.712.42-1.51.63-2.393.63zm48.264 2.802l-.022-9.429-4.367 7.764h-1.527l-4.367-7.583v9.248h-3.223V62h2.841l5.555 9.789 5.47-9.789h2.841l.021 15.752h-3.222zm18.403-2.925v2.925h-11.491V62h11.215v2.925h-7.802v3.421h6.89v2.835h-6.89v3.646h8.078zM208.338 62h11.979v2.903h-8.566v3.24h4.113c1.795 0 3.163.398 4.103 1.193s1.41 1.943 1.41 3.443c0 1.575-.523 2.798-1.57 3.668-1.045.87-2.522 1.305-4.43 1.305h-7.04V62zm6.848 13.052c.876 0 1.548-.184 2.014-.551.466-.368.7-.904.7-1.61 0-1.38-.905-2.07-2.714-2.07h-3.435v4.231h3.435zm20.29-.225v2.925h-11.491V62H235.2v2.925h-7.802v3.421h6.89v2.835h-6.89v3.646h8.078zM251.484 62v15.752h-3.393V64.97h-5.088l-.106 3.286c-.07 2.235-.24 4.047-.509 5.435-.269 1.387-.717 2.452-1.346 3.195-.63.743-1.51 1.114-2.64 1.114-.466 0-1.032-.083-1.696-.248l.212-3.083c.184.06.389.09.615.09.82 0 1.392-.513 1.717-1.541.325-1.028.53-2.637.615-4.827l.212-6.391h11.407zm10.897 5.176c1.81 0 3.198.427 4.167 1.283.968.855 1.452 2.122 1.452 3.803 0 1.785-.534 3.146-1.6 4.084-1.068.938-2.57 1.406-4.506 1.406h-6.7V62h3.414v5.176h3.773zm-.678 7.876c.89 0 1.587-.232 2.088-.698.502-.465.753-1.14.753-2.025 0-1.635-.947-2.453-2.841-2.453h-3.095v5.176h3.095z" transform="translate(-70 -50)"/>
</svg>
